<svg id="Layer_1" data-name="Layer 1" xmlns="http://www.w3.org/2000/svg" viewBox="0 0 1080 1080"><defs><style>.cls-1,.cls-2{fill:#fff;}.cls-2{fill-rule:evenodd;}</style></defs><title>ICONOS</title><path class="cls-1" d="M376.34,379.79c6.68-53.63,20.55-94.36,37.29-125.25C459.49,169.9,528,157.35,532.54,156.61l.31-.07a39.27,39.27,0,0,1,5.43-.4,40.12,40.12,0,0,1,5.36.4l.44.07c3.47.57,44.91,8.14,84.34,49.78,31,32.77,61.63,87.13,72.2,176.78a245.65,245.65,0,0,0-29,34c-5.8-99.78-35.83-156.57-66.32-188.77-31.39-33.14-62-39.52-66.07-40.23-.2,0-.52,0-1,0a9.17,9.17,0,0,0-.93,0h0c-5.6,1-58,12-95.6,81.51-17.92,33.07-32.24,79-36.51,142.77A242.07,242.07,0,0,0,376.34,379.79Z"/><path class="cls-1" d="M298.82,560.37c4.68-35.64,3.2-64.4-.87-86.92-7.76-42.89-23.63-61-23.86-61.24l-.5-.56a35.75,35.75,0,0,1-6.84-11.11,37.75,37.75,0,0,1-2.5-12.75l-.06-.31v-1l.06-.31a37.81,37.81,0,0,1,1.23-8.93,36.8,36.8,0,0,1,3.41-8.35h0a33.23,33.23,0,0,1,17.22-15.21,30.46,30.46,0,0,1,23.41.66v0c57.15,25.11,90.9,72.51,110.46,114.37,19.18,41,24.74,76.84,25.24,80.2,6,34.63,8.15,68.8,10.19,100.6,5.28,82.3,9.42,146.79,83.13,146.79,76,0,80.42-65.58,86.09-148.94,2.12-31.34,4.41-64.94,10.28-99,.46-3.12,6-38.68,25.16-79.46,19.56-41.67,53.33-89,110.5-114h0a30.41,30.41,0,0,1,23.37-.63,33.45,33.45,0,0,1,17.24,15.24l.06.06a37.49,37.49,0,0,1,4.35,22.12A36.36,36.36,0,0,1,806.53,412c-3.34,4-38.61,48.21-25.31,148.71l.12.94c12.36,169-47.64,276.76-129.29,327.67a227.25,227.25,0,0,1-258.69-12.43c-74.54-56.81-122.16-164.08-94.54-316.55Zm30.49-92.54c4.58,25.35,6.29,57.47,1.1,96.8l-.12.75c-25.37,139.19,16.45,235.88,82.44,286.17a195.23,195.23,0,0,0,222.45,10.69c72.52-45.22,125.65-143,114.3-298.31h0c-15.09-116.18,30.57-170,32.87-172.74l0,0,.44-.5a4.47,4.47,0,0,0,1-2.53,5.48,5.48,0,0,0-.59-3.26h0a2.5,2.5,0,0,0-.42-.59c-48.13,21.31-77,62.07-93.93,98.11-17.23,36.71-22.08,68.36-22.41,70.66l-.07.38c-5.65,32.7-7.88,65.49-10,96.06-6.8,100.08-12.15,178.81-118,178.81-103.66,0-108.64-77.66-115-176.79-2-31-4.12-64.25-9.86-97.52l-.06-.38c-.38-2.56-5.26-34.51-22.5-71.4-16.95-36.25-45.83-77.15-94-98.45a3,3,0,0,0-.31.49l-.06.12a4.75,4.75,0,0,0-.41,1.11,6.35,6.35,0,0,0-.21,1h0v1h-.05a5.42,5.42,0,0,0,.36,1.57,3.92,3.92,0,0,0,.72,1.23h0C300.61,394.32,320.64,419.82,329.31,467.83Z"/><path class="cls-2" d="M476.05,273a16.93,16.93,0,1,1-16.92,16.92A16.92,16.92,0,0,1,476.05,273Z"/><path class="cls-2" d="M536.37,273a16.93,16.93,0,1,1-16.92,16.92A16.92,16.92,0,0,1,536.37,273Z"/><path class="cls-2" d="M596.69,273a16.93,16.93,0,1,1-16.92,16.92A16.92,16.92,0,0,1,596.69,273Z"/><path class="cls-2" d="M451.16,323.74a16.93,16.93,0,1,1-16.92,16.92A16.93,16.93,0,0,1,451.16,323.74Z"/><path class="cls-2" d="M511.48,323.74a16.93,16.93,0,1,1-16.93,16.92A16.93,16.93,0,0,1,511.48,323.74Z"/><path class="cls-2" d="M571.8,323.74a16.93,16.93,0,1,1-16.93,16.92A16.93,16.93,0,0,1,571.8,323.74Z"/><path class="cls-2" d="M628.35,323.74a16.93,16.93,0,1,1-16.92,16.92A16.93,16.93,0,0,1,628.35,323.74Z"/><path class="cls-2" d="M451.16,380.35a16.92,16.92,0,1,1-16.92,16.92A16.92,16.92,0,0,1,451.16,380.35Z"/><path class="cls-2" d="M511.48,380.35a16.92,16.92,0,1,1-16.93,16.92A16.92,16.92,0,0,1,511.48,380.35Z"/><path class="cls-2" d="M571.8,380.35a16.92,16.92,0,1,1-16.93,16.92A16.92,16.92,0,0,1,571.8,380.35Z"/><path class="cls-2" d="M628.35,380.35a16.92,16.92,0,1,1-16.92,16.92A16.92,16.92,0,0,1,628.35,380.35Z"/><path class="cls-2" d="M451.16,437a16.93,16.93,0,1,1-16.92,16.92A16.93,16.93,0,0,1,451.16,437Z"/><path class="cls-2" d="M511.48,437a16.93,16.93,0,1,1-16.93,16.92A16.93,16.93,0,0,1,511.48,437Z"/><path class="cls-2" d="M571.8,437a16.93,16.93,0,1,1-16.93,16.92A16.93,16.93,0,0,1,571.8,437Z"/><path class="cls-2" d="M628.35,437a16.93,16.93,0,1,1-16.92,16.92A16.93,16.93,0,0,1,628.35,437Z"/><path class="cls-2" d="M511.48,493.56a16.92,16.92,0,1,1-16.93,16.92A16.93,16.93,0,0,1,511.48,493.56Z"/><path class="cls-2" d="M571.8,493.56a16.92,16.92,0,1,1-16.93,16.92A16.93,16.93,0,0,1,571.8,493.56Z"/><path class="cls-2" d="M511.48,560.65a16.92,16.92,0,1,1-16.93,16.92A16.93,16.93,0,0,1,511.48,560.65Z"/><path class="cls-2" d="M571.8,560.65a16.92,16.92,0,1,1-16.93,16.92A16.93,16.93,0,0,1,571.8,560.65Z"/><path class="cls-2" d="M511.48,628.34a16.92,16.92,0,1,1-16.93,16.92A16.93,16.93,0,0,1,511.48,628.34Z"/><path class="cls-2" d="M571.8,628.34a16.92,16.92,0,1,1-16.93,16.92A16.93,16.93,0,0,1,571.8,628.34Z"/><path class="cls-2" d="M511.48,713a16.92,16.92,0,1,1-16.93,16.92A16.93,16.93,0,0,1,511.48,713Z"/><path class="cls-2" d="M571.8,713a16.92,16.92,0,1,1-16.93,16.92A16.93,16.93,0,0,1,571.8,713Z"/></svg>