<svg id="Layer_1" data-name="Layer 1" xmlns="http://www.w3.org/2000/svg" viewBox="0 0 1080 1080"><defs><style>.cls-1,.cls-2{fill:#fff;}.cls-2{fill-rule:evenodd;}</style></defs><title>ICONOS</title><circle class="cls-1" cx="540.01" cy="834.65" r="14.71"/><path class="cls-1" d="M750.57,330.5l-2.61,0c-.86,0-1.69-.08-2.54-.11a24.23,24.23,0,0,1,.55,5.07V846a24.24,24.24,0,0,1-24.22,24.22H358.27A24.26,24.26,0,0,1,334,846V335.43a24.06,24.06,0,0,1,.56-5.06c-.85,0-1.67.09-2.52.1l-2.64,0a142.75,142.75,0,0,1-24.3-2.1,52.51,52.51,0,0,0-.52,7V846a53.72,53.72,0,0,0,53.67,53.64H721.75A53.71,53.71,0,0,0,775.4,846V335.43a54.22,54.22,0,0,0-.52-7A142.94,142.94,0,0,1,750.57,330.5Z"/><path class="cls-1" d="M854.11,235.2c-34-26.49-108.62-59.85-165.56-14.58a71,71,0,0,0-8.35-13.2,72,72,0,0,0-56.61-27.08h-169a71.35,71.35,0,0,0-64.38,39.24c-56.76-43.77-130.5-10.67-164.28,15.62a14.14,14.14,0,0,0-3.09,19c28,42.07,66.61,54.81,100.46,54.81,22.92,0,43.66-5.84,57.42-12.38a14.07,14.07,0,0,0,8-11.5l45.71,190a75.14,75.14,0,0,0-7.94,34.41c0,33.75,19.93,60.2,45.37,60.2.43,0,.86,0,1.29-.07l63.42-5.83a91.93,91.93,0,0,1,16.59,0l63.42,5.83c.43,0,.87.07,1.3.07,25.44,0,45.37-26.45,45.37-60.2,0-14.38-3.65-27.42-9.77-37.66l40.51-205a69.57,69.57,0,0,0,1.65-14c43.53-48,104.4-18.75,129.62-3.11C780,302.17,714.37,272.41,711.47,271.06a14.16,14.16,0,1,0-12.15,25.58c13.76,6.54,34.49,12.38,57.42,12.38,33.85,0,72.47-12.74,100.46-54.81A14.14,14.14,0,0,0,854.11,235.2ZM368.57,271c-2.95,1.37-68.47,31.1-113.69-21.28a175,175,0,0,1,40.35-18.35c35.51-10.59,64.84-4,87.29,19.35A71.89,71.89,0,0,0,384.27,267l2.26,9.38A14.13,14.13,0,0,0,368.57,271ZM618.28,541.37l-62.61-5.76q-5.42-.5-10.88-.5t-10.89.5l-62.6,5.76c-7.92-.53-16.57-14-16.57-31.86,0-17.17,8-30.26,15.63-31.73l51.84,14.3a83.92,83.92,0,0,0,45.18,0l51.84-14.3c7.65,1.47,15.63,14.56,15.63,31.73C634.85,527.39,626.2,540.84,618.28,541.37Zm47.93-280.44L628.64,451.05a36,36,0,0,0-10.84-1.73,14.16,14.16,0,0,0-3.77.51l-54.18,14.94a55.92,55.92,0,0,1-30.12,0l-54.19-14.95a14.09,14.09,0,0,0-3.76-.51A36.08,36.08,0,0,0,458,452.08l-46.1-191.53a41.77,41.77,0,0,1,8.21-35.45,43.85,43.85,0,0,1,34.49-16.44h169a43.85,43.85,0,0,1,34.49,16.44A42,42,0,0,1,666.21,260.93Z"/><path class="cls-1" d="M465.52,277.2h-4.36a14.17,14.17,0,0,0,0,28.33h4.36a14.17,14.17,0,0,0,0-28.33Z"/><path class="cls-1" d="M618,277.2h-4.36a14.17,14.17,0,0,0,0,28.33H618a14.17,14.17,0,0,0,0-28.33Z"/><path class="cls-1" d="M481.4,495.35h-7.31a14.16,14.16,0,1,0,0,28.32h7.31a14.16,14.16,0,1,0,0-28.32Z"/><path class="cls-1" d="M613.38,495.35h-7.31a14.16,14.16,0,0,0,0,28.32h7.31a14.16,14.16,0,1,0,0-28.32Z"/><path class="cls-2" d="M605.83,738.54a16.08,16.08,0,1,1,16.08-16.08A16.08,16.08,0,0,1,605.83,738.54Z"/><path class="cls-2" d="M544.26,738.54a16.08,16.08,0,1,1,16.07-16.08A16.08,16.08,0,0,1,544.26,738.54Z"/><path class="cls-2" d="M482.68,738.54a16.08,16.08,0,1,1,16.08-16.08A16.07,16.07,0,0,1,482.68,738.54Z"/><path class="cls-2" d="M638,690.31a16.08,16.08,0,1,1,16.07-16.08A16.08,16.08,0,0,1,638,690.31Z"/><path class="cls-2" d="M572.18,690.31a16.08,16.08,0,1,1,16.07-16.08A16.08,16.08,0,0,1,572.18,690.31Z"/><path class="cls-2" d="M506.33,690.31a16.08,16.08,0,1,1,16.08-16.08A16.08,16.08,0,0,1,506.33,690.31Z"/><path class="cls-2" d="M444.06,690.31a16.08,16.08,0,1,1,16.08-16.08A16.08,16.08,0,0,1,444.06,690.31Z"/><path class="cls-2" d="M646.56,636.53a16.08,16.08,0,1,1,16.07-16.07A16.08,16.08,0,0,1,646.56,636.53Z"/><path class="cls-2" d="M576.45,636.53a16.08,16.08,0,1,1,16.07-16.07A16.08,16.08,0,0,1,576.45,636.53Z"/><path class="cls-2" d="M502.07,636.53a16.08,16.08,0,1,1,16.07-16.07A16.08,16.08,0,0,1,502.07,636.53Z"/><path class="cls-2" d="M435.53,636.53a16.08,16.08,0,1,1,16.07-16.07A16.08,16.08,0,0,1,435.53,636.53Z"/><path class="cls-1" d="M694.45,347.87h-1.12l-13.59,68.78V778.18H400.23V398.54L388,347.87h-2.52a14.72,14.72,0,0,0-14.71,14.71V792.89a14.71,14.71,0,0,0,14.71,14.71H694.45a14.71,14.71,0,0,0,14.72-14.71V362.58A14.72,14.72,0,0,0,694.45,347.87Z"/></svg>