<svg id="Layer_1" data-name="Layer 1" xmlns="http://www.w3.org/2000/svg" viewBox="0 0 1080 1080"><defs><style>.cls-1{fill:#fff;}</style></defs><title>ICONOS</title><path class="cls-1" d="M504.65,900a7.58,7.58,0,0,1-.83,0,5.09,5.09,0,0,1-.66,0c-.2,0-.4,0-.6,0h-.06a18.57,18.57,0,0,1-17.72-18.5v-1a18.63,18.63,0,0,1,19.47-17.73c.4,0,.8,0,1.17.06a18.62,18.62,0,0,1-.77,37.22Zm70-5.06h0a18.62,18.62,0,0,1-18.29-15.15,18.21,18.21,0,0,1-.32-3.54A18.63,18.63,0,0,1,571.22,858c.37-.06.78-.15,1.15-.2a18.61,18.61,0,1,1,7.09,36.53l-.52.11a6,6,0,0,1-.8.15A17.42,17.42,0,0,1,574.68,894.92Zm-140.61-6.23A18.77,18.77,0,0,1,429,888l-.86-.25-.4-.12h0a18.63,18.63,0,0,1,5.12-36.53,19.94,19.94,0,0,1,5.12.71l1.11.35a18.61,18.61,0,0,1-5,36.53Zm208.82-15.18a18.62,18.62,0,0,1-7.6-35.62l.25-.11c.29-.12.55-.23.83-.37a18.61,18.61,0,1,1,15.32,33.93l-1.17.54h0A18.39,18.39,0,0,1,642.89,873.51Zm-275-12h0a18.45,18.45,0,0,1-9-2.34c-.31-.17-.6-.32-.88-.49l-.26-.14A18.62,18.62,0,1,1,376,826.06l.12.08c.31.15.6.32.91.49a18.61,18.61,0,0,1-9.06,34.9ZM704.35,837A18.62,18.62,0,0,1,693,803.59h0l.4-.32.54-.4a18.61,18.61,0,0,1,26.1,3.41,18.6,18.6,0,0,1-3.4,26.09c-.34.26-.68.55-1,.81h0A18.48,18.48,0,0,1,704.35,837Zm51.37-49.63v0a18.63,18.63,0,0,1-14.38-30.45,5.2,5.2,0,0,0,.46-.57l.28-.31a18.55,18.55,0,0,1,14.47-6.89,18.76,18.76,0,0,1,11.72,4.17A18.68,18.68,0,0,1,771,779.55l-.34.4-.51.6A18.52,18.52,0,0,1,755.72,787.38ZM230,702.51a18.78,18.78,0,0,1-17.41-12v0c-.11-.32-.26-.66-.37-1,0-.06-.06-.15-.09-.2v0a18.62,18.62,0,1,1,34.82-13.21c.06.2.14.37.2.57l.2.52a18.65,18.65,0,0,1-10.69,24.07A18.4,18.4,0,0,1,230,702.51Zm-17.72-69.24a18.67,18.67,0,0,1-18.44-16.15c0-.23-.06-.46-.09-.66s-.05-.46-.08-.65a16.26,16.26,0,0,1-.17-2.38,18.62,18.62,0,0,1,16.2-18.49,16.87,16.87,0,0,1,2.43-.18A18.65,18.65,0,0,1,230.56,611c.06.4.12.77.17,1.15a18.67,18.67,0,0,1-16,21A18.79,18.79,0,0,1,212.27,633.27Zm613.06-45.11a18.71,18.71,0,0,1-18.61-18.38v-1.17A18.64,18.64,0,0,1,825,549.68h.32A18.71,18.71,0,0,1,843.94,568l0,1.32v.25a18.7,18.7,0,0,1-18.38,18.61ZM211.15,561.78a13.33,13.33,0,0,1-1.91-.12,18.58,18.58,0,0,1-16.64-20.38c0-.4.08-.8.11-1.23l0-.06s0,0,0,0a18.6,18.6,0,0,1,18.5-16.67c.66,0,1.34,0,2,.09A18.57,18.57,0,0,1,229.88,542c0,.62-.06,1.25-.12,1.88,0,.2,0,.4-.06.57s0,.41,0,.6A18.57,18.57,0,0,1,211.15,561.78ZM816.09,517.3h0a18.62,18.62,0,0,1-18-14.07l-.29-1.14a18.59,18.59,0,0,1,13.41-22.67,18.21,18.21,0,0,1,4.63-.6,18.62,18.62,0,0,1,18,14c.11.43.2.85.31,1.28a19.75,19.75,0,0,1,.57,4.66,18.68,18.68,0,0,1-18.61,18.53ZM226.44,492a18.23,18.23,0,0,1-6.05-1,18.63,18.63,0,0,1-11.55-23.67,8.58,8.58,0,0,1,.43-1.23v0a18.62,18.62,0,0,1,35.16,12.27,3.52,3.52,0,0,0-.2.6,1.92,1.92,0,0,0-.18.48A18.63,18.63,0,0,1,226.44,492Zm564.24-41.48a18.57,18.57,0,0,1-16.52-10l-.06-.12c-.17-.31-.31-.63-.49-.94a18.61,18.61,0,1,1,33-17.3c.15.26.29.52.43.78l.17.4s0,0,0,0a18.65,18.65,0,0,1-16.52,27.19ZM257.35,427.54A18.6,18.6,0,0,1,241.65,399l.18-.29c.17-.28.34-.54.51-.83a18.63,18.63,0,0,1,31.39,20.07c-.2.32-.43.66-.63,1A18.51,18.51,0,0,1,257.35,427.54ZM750.6,391.29a18.61,18.61,0,0,1-14.12-6.46l0-.06-.14-.14-.57-.69a18.62,18.62,0,0,1,28.13-24.41c.25.31.54.66.83,1l0,0a18.63,18.63,0,0,1-14.12,30.76ZM302.4,372.05h0a18.61,18.61,0,0,1-13-32l.54-.51.41-.38a18.61,18.61,0,0,1,31.55,13.47A18.36,18.36,0,0,1,316.21,366c-.26.29-.55.54-.83.83A18.52,18.52,0,0,1,302.4,372.05ZM359,328.43a18.61,18.61,0,0,1-9.6-34.56l1.14-.69a18.61,18.61,0,0,1,25.53,6.46,18.86,18.86,0,0,1,2.6,9.46,18.66,18.66,0,0,1-9.09,16.07,6.49,6.49,0,0,1-.6.37l-.4.23A18.59,18.59,0,0,1,359,328.43Z"/><path class="cls-1" d="M285.32,484q-4.19,10.61-7.4,21.68c29.19,2.5,61.07,10.67,92,23.49a342.15,342.15,0,0,1,74.91,42.57A70.91,70.91,0,0,1,464.37,569h12.16c-28.16-25-62.47-45.62-98.08-60.39C347.43,495.73,315.32,487.24,285.32,484Z"/><path class="cls-1" d="M504.19,467.2c-50.93-32.63-108.54-56.13-163.36-67.72a251.45,251.45,0,0,0-17.34,19.28c55.8,9.83,115.87,33.39,168.66,67.2,37.34,23.92,70.91,52.92,96.58,85.71a69.45,69.45,0,0,1,27.17,14.86,86.24,86.24,0,0,1,8.41-2.93C595.62,538,552.89,498.39,504.19,467.2Z"/><path class="cls-1" d="M554.33,569c-22.79-25.51-50.91-48.12-81.76-67-51.51-31.62-110.81-53.1-165.25-60.85q-6.51,10.14-12.06,20.94C349,468.11,409,489.08,461,521a361.43,361.43,0,0,1,62.56,48Z"/><path class="cls-1" d="M756.78,508.6A244.63,244.63,0,0,0,749,485.21c-52.15-5.5-105,0-151.52,18.07a256.29,256.29,0,0,0-29.18,13.44q8.6,8,16.59,16.47c6.69-3.36,13.58-6.41,20.62-9.14C651.65,506.15,704.69,501.59,756.78,508.6Z"/><path class="cls-1" d="M584.44,476.24c47.06-17.65,99.63-23.29,152-18.28a248.5,248.5,0,0,0-14.24-23.37C672,431.81,622,438.37,576.68,455.38A292.51,292.51,0,0,0,524.54,481c6.52,4.67,12.92,9.5,19.14,14.48A271.87,271.87,0,0,1,584.44,476.24Z"/><path class="cls-1" d="M713.44,624.27C692.22,607.76,646,587,610.16,614.3a45.05,45.05,0,0,0-4.59-7.08,46,46,0,0,0-36.15-17.3h-105a46,46,0,0,0-36.16,17.3,45.24,45.24,0,0,0-4.25,6.49c-35.69-26.35-81.41-5.82-102.45,10.56a10.05,10.05,0,0,0-2.2,13.5c17.68,26.57,42.07,34.62,63.44,34.62A87.37,87.37,0,0,0,419,664.57a9.9,9.9,0,0,0,4.21-3.77L450.5,774.19a48,48,0,0,0-4.87,21.54c0,21.68,12.94,38.66,29.45,38.66.3,0,.61,0,.92,0l39.41-3.63a54.74,54.74,0,0,1,10.08,0l39.41,3.63c.3,0,.61,0,.92,0,16.51,0,29.44-17,29.44-38.66a47.16,47.16,0,0,0-6-23.6l22.12-112a9.94,9.94,0,0,0,4.56,4.43,87.37,87.37,0,0,0,36.25,7.82c21.37,0,45.76-8,63.44-34.62A10,10,0,0,0,713.44,624.27ZM410.38,646.42c-1.76.83-40.62,18.75-68.21-11.86,15.79-9.51,50.59-25.27,76.19.86a45.73,45.73,0,0,0,1.12,9.89l.38,1.57A10,10,0,0,0,410.38,646.42ZM566.11,814.27l-38.79-3.56q-3.42-.32-6.87-.32c-2.3,0-4.6.11-6.88.32l-38.79,3.56c-3.71-.37-9-7.68-9-18.54,0-10.29,4.79-17.39,8.46-18.43l31.89,8.8a53.33,53.33,0,0,0,28.74,0l31.89-8.8c3.66,1,8.45,8.14,8.45,18.43C575.16,806.59,569.83,813.9,566.11,814.27ZM594.68,641,571.6,757.8a23.65,23.65,0,0,0-5.78-.72,10,10,0,0,0-2.67.36l-33.68,9.29a33.53,33.53,0,0,1-18.05,0l-33.67-9.29a10,10,0,0,0-2.67-.36,23.7,23.7,0,0,0-7.71,1.33L439.06,640.74a24.69,24.69,0,0,1,4.86-21A26,26,0,0,1,464.37,610h105a26,26,0,0,1,20.45,9.75A24.87,24.87,0,0,1,594.68,641Zm29.88,5.41a10,10,0,0,0-10.74,1.39l.52-2.63a46,46,0,0,0,1-8.46c25.69-27.93,61.36-11.82,77.4-2.16C665.31,664.89,626.3,647.23,624.56,646.42Z"/><path class="cls-1" d="M471.19,650.12h-2.71a10,10,0,0,0,0,20.1h2.71a10,10,0,1,0,0-20.1Z"/><path class="cls-1" d="M565.94,650.12h-2.7a10,10,0,1,0,0,20.1h2.7a10.05,10.05,0,1,0,0-20.1Z"/><path class="cls-1" d="M481.06,785.68h-4.55a10.05,10.05,0,0,0,0,20.1h4.55a10.05,10.05,0,0,0,0-20.1Z"/><path class="cls-1" d="M558.53,785.68a10.05,10.05,0,1,0,0,20.1h4.54a10.05,10.05,0,0,0,0-20.1Z"/><path class="cls-1" d="M657.76,424.71v-67h23v65.23Q669.21,423.48,657.76,424.71Z"/><path class="cls-1" d="M667.3,180c15.77,0,29.2,12.64,38.14,33.08,7.68,17.57,12.44,41.55,12.44,67.77s-4.76,50.2-12.44,67.77c-8.94,20.44-22.37,33.08-38.14,33.08s-29.2-12.64-38.15-33.08c-7.68-17.57-12.43-41.55-12.43-67.77s4.75-50.2,12.43-67.77c9-20.44,22.37-33.08,38.15-33.08Zm17.15,42.23C679.24,210.35,673.11,203,667.3,203s-11.95,7.37-17.16,19.27c-6.46,14.78-10.46,35.49-10.46,58.62s4,43.84,10.46,58.62c5.21,11.9,11.34,19.27,17.16,19.27s11.94-7.37,17.15-19.27c6.46-14.78,10.46-35.49,10.46-58.62S690.91,237,684.45,222.25Z"/><path class="cls-1" d="M550.92,453.72v-69h23v59.49l-1.24.46Q561.62,448.77,550.92,453.72Z"/><path class="cls-1" d="M562.4,238.45c13.88,0,25.58,10.89,33.28,28.48,6.44,14.72,10.42,34.77,10.42,56.65s-4,41.93-10.42,56.65c-7.7,17.6-19.4,28.48-33.28,28.48s-25.58-10.88-33.28-28.48c-6.44-14.72-10.42-34.76-10.42-56.65s4-41.93,10.42-56.65c7.7-17.59,19.4-28.48,33.28-28.48Zm12.29,37.63c-4-9.06-8.37-14.66-12.29-14.66s-8.33,5.6-12.29,14.66c-5.22,11.94-8.45,28.71-8.45,47.5s3.23,35.57,8.45,47.5c4,9.06,8.37,14.67,12.29,14.67s8.32-5.61,12.29-14.67c5.22-11.93,8.45-28.71,8.45-47.5S579.91,288,574.69,276.08Z"/><path class="cls-1" d="M414.88,365.24a10.47,10.47,0,0,1-10.43-9.55L399,294.64l-31.25-52.72a10.47,10.47,0,0,1,11.72-15.46l110.39,29.65a10.47,10.47,0,0,1,5.4,16.74L423,361.39A10.46,10.46,0,0,1,414.88,365.24Zm-16-111.88L418.26,286a10.52,10.52,0,0,1,1.43,4.42L423,328.21l45.79-56.07Z"/><path class="cls-1" d="M795.47,716.13a10.35,10.35,0,0,1-2.28-.26,10.48,10.48,0,0,1-7.54-6.59L746,602.06A10.47,10.47,0,0,1,760.35,589l55.36,26.3,61.29-.18h0A10.47,10.47,0,0,1,884.37,633l-81.56,80.09A10.45,10.45,0,0,1,795.47,716.13Zm-20.88-97.2,25.1,67.9,51.65-50.72-38,.12h0a10.42,10.42,0,0,1-4.49-1Z"/><path class="cls-1" d="M290.72,876.82a10.69,10.69,0,0,1-1.94-.18,10.46,10.46,0,0,1-8.32-8.21l-22.72-112a10.47,10.47,0,0,1,12.58-12.29l111.49,25.2A10.47,10.47,0,0,1,385,788.45l-52.22,32.09L299.52,872A10.48,10.48,0,0,1,290.72,876.82Zm-9.23-108.71,14.38,70.95,20.58-31.88a10.41,10.41,0,0,1,3.32-3.25l32.33-19.86Z"/></svg>