<svg id="Layer_1" data-name="Layer 1" xmlns="http://www.w3.org/2000/svg" viewBox="0 0 1080 1080"><defs><style>.cls-1{fill:#ffc216;}.cls-2{fill:#39b54a;}.cls-3{fill:#603913;}.cls-4{fill:#66bb6a;fill-rule:evenodd;}</style></defs><title>ICONOS</title><path class="cls-1" d="M570.43,417.23l13.27-67.16a18.28,18.28,0,0,0-18.09-22.13H511.53a18.27,18.27,0,0,0-18.08,22.13l16.16,67.16"/><path class="cls-1" d="M502.28,344c-20.68-23.64-51.73.52-51.73.52,16.82,25.28,44.8,12,44.8,12"/><path class="cls-1" d="M575.46,344c20.68-23.64,51.73.52,51.73.52-16.82,25.28-44.8,12-44.8,12"/><path class="cls-1" d="M563.76,438.75l-20.29-1.86a33,33,0,0,0-6.13,0L517,438.75c-5.51,0-10-6.59-10-14.73h0c0-8.13,4.47-14.72,10-14.72l17.34,4.78a22.41,22.41,0,0,0,12,0l17.33-4.78c5.52,0,10,6.59,10,14.72h0C573.75,432.16,569.28,438.75,563.76,438.75Z"/><path class="cls-2" d="M401.78,828.74h-.06a17.09,17.09,0,0,1-17-17.14l.92-258.3a17.09,17.09,0,0,1,17.08-17h.07a17.07,17.07,0,0,1,17,17.14l-.92,258.3A17.09,17.09,0,0,1,401.78,828.74Z"/><path class="cls-2" d="M675,828.74H675a17.09,17.09,0,0,1-17-17.14l.92-258.3a17.09,17.09,0,0,1,17.08-17H676a17.08,17.08,0,0,1,17,17.14l-.92,258.3A17.09,17.09,0,0,1,675,828.74Z"/><path class="cls-2" d="M627,699.72h0l-176.33-.27a17.08,17.08,0,0,1,0-34.15h0l176.34.26a17.08,17.08,0,0,1,0,34.16Z"/><path class="cls-1" d="M231.85,509.33a14.15,14.15,0,0,1-13.41-18.67l50-148.38a14.11,14.11,0,0,1,6.34-7.74l257-148.38a14.21,14.21,0,0,1,14.16,0L803,334.54a14.13,14.13,0,0,1,6.33,7.74l47.37,140.5a14.15,14.15,0,0,1-26.82,9L784.16,356.38,538.87,214.76,293.58,356.38,245.26,499.7A14.15,14.15,0,0,1,231.85,509.33Z"/><path class="cls-2" d="M861.29,895.73H218.71a14.16,14.16,0,1,1,0-28.32H861.29a14.16,14.16,0,1,1,0,28.32Z"/><path class="cls-3" d="M809.91,505.18a14.14,14.14,0,0,0-1.8-6.81c-.43-1.65-.92-3.29-1.5-4.9L772.46,398a56.52,56.52,0,0,0-24.93-29.87L567.09,263.91a56.53,56.53,0,0,0-56.43,0L330.21,368.09A56.5,56.5,0,0,0,305.29,398l-34.17,95.52a56.55,56.55,0,0,0-3.29,19V829.8A14.16,14.16,0,0,0,282,844H795.75a14.16,14.16,0,0,0,14.16-14.15V512.48c0-1.69-.09-3.38-.23-5.05A13.83,13.83,0,0,0,809.91,505.18ZM296.14,815.64V519.07l79.68.23h0a14.16,14.16,0,0,0,0-28.31l-73.75-.21,29.79-83.29a28.19,28.19,0,0,1,12.42-14.89L524.81,288.42a28.18,28.18,0,0,1,28.12,0L733.38,392.6a28.14,28.14,0,0,1,12.42,14.89l29.84,83.44-70.79-.2h0a14.16,14.16,0,0,0,0,28.31l76.83.22V815.64Z"/><path class="cls-4" d="M601.37,634.62a16.08,16.08,0,1,1,16.08-16.08A16.07,16.07,0,0,1,601.37,634.62Z"/><path class="cls-4" d="M544.07,634.62a16.08,16.08,0,1,1,16.07-16.08A16.08,16.08,0,0,1,544.07,634.62Z"/><path class="cls-4" d="M486.77,634.62a16.08,16.08,0,1,1,16.07-16.08A16.08,16.08,0,0,1,486.77,634.62Z"/><path class="cls-4" d="M625,586.39a16.08,16.08,0,1,1,16.08-16.08A16.08,16.08,0,0,1,625,586.39Z"/><path class="cls-4" d="M567.72,586.39a16.08,16.08,0,1,1,16.08-16.08A16.07,16.07,0,0,1,567.72,586.39Z"/><path class="cls-4" d="M510.42,586.39a16.08,16.08,0,1,1,16.07-16.08A16.08,16.08,0,0,1,510.42,586.39Z"/><path class="cls-4" d="M456.69,586.39a16.08,16.08,0,1,1,16.07-16.08A16.08,16.08,0,0,1,456.69,586.39Z"/><path class="cls-4" d="M625,532.61a16.08,16.08,0,1,1,16.08-16.08A16.08,16.08,0,0,1,625,532.61Z"/><path class="cls-4" d="M567.72,532.61a16.08,16.08,0,1,1,16.08-16.08A16.07,16.07,0,0,1,567.72,532.61Z"/><path class="cls-4" d="M510.42,532.61a16.08,16.08,0,1,1,16.07-16.08A16.08,16.08,0,0,1,510.42,532.61Z"/><path class="cls-4" d="M456.69,532.61a16.08,16.08,0,1,1,16.07-16.08A16.08,16.08,0,0,1,456.69,532.61Z"/></svg>